<?xml version="1.0" encoding="utf-8"?>
<!-- Generator: Adobe Illustrator 25.3.1, SVG Export Plug-In . SVG Version: 6.00 Build 0)  -->
<svg version="1.1" id="_x32_" xmlns="http://www.w3.org/2000/svg" xmlns:xlink="http://www.w3.org/1999/xlink" x="0px" y="0px"
	 viewBox="0 0 512 512" style="enable-background:new 0 0 512 512;" xml:space="preserve">
<style type="text/css">
	.st0{fill:#CC0000;}
</style>
<path class="st0" d="M496.5,397.7L298.2,54.2c-18.8-32.5-65.6-32.5-84.4,0L15.5,397.7c-18.8,32.5,4.7,73.1,42.2,73.1h396.6
	C491.8,470.8,515.2,430.2,496.5,397.7z M282.8,415.8c-7.4,7.4-16.1,10.9-26.6,10.9c-10.9,0-20.1-3.5-27-10.9
	c-7.4-7-10.9-15.7-10.9-26.6c0-10.5,3.5-19.6,10.9-27.5c7-7,16.1-10.9,27-10.9c10.5,0,19.2,3.9,26.6,10.9c7.4,7.9,11.3,17,11.3,27.5
	C294.1,400.1,290.2,408.8,282.8,415.8z M295,230c-5.2,20.9-14.8,58.9-28.4,114.3h-21.4L216.9,230c-6.1-25.3-9.2-40.6-9.2-44.9
	c0-13.1,4.4-24,14-33.6c9.6-8.7,20.9-13.5,34.5-13.5c13.1,0,24,4.8,33.6,13.5c9.6,9.6,14.4,20.5,14.4,33.6
	C304.2,189.4,301.1,204.7,295,230z"/>
</svg>
