<svg xmlns="http://www.w3.org/2000/svg" width="49.94" height="47.31" viewBox="0 0 49.94 47.31">
  <defs>
    <style>
      .cls-1 {
        fill: #fff;
        fill-rule: evenodd;
      }
    </style>
  </defs>
  <path id="icon_good_on.svg" class="cls-1" d="M4329.22,1175.4a5.065,5.065,0,0,0-3.71-8.43h-9.7a33.042,33.042,0,0,0,1.37-8.54v-1.69a6.714,6.714,0,0,0-6.66-6.74h-1.66a1.685,1.685,0,0,0-1.62,1.28l-0.9,3.67c-1.27,5.15-5.31,10.82-9.48,11.85a5.008,5.008,0,0,0-4.65-3.2h-9.99a1.667,1.667,0,0,0-1.66,1.68v30.35a1.667,1.667,0,0,0,1.66,1.68h9.99a4.992,4.992,0,0,0,4.51-2.88l5.72,1.93a18.11,18.11,0,0,0,5.79.95h13.95a130.251,130.251,0,0,1,8.32-11.8,5.076,5.076,0,0,1,0-6.74A5.033,5.033,0,0,0,4329.22,1175.4Zm-7.04,1.68h3.33a1.69,1.69,0,0,1,0,3.38h-3.33a1.685,1.685,0,0,0,0,3.37h3.33a1.685,1.685,0,0,1,0,3.37h-3.33a1.685,1.685,0,0,0,0,3.37,1.685,1.685,0,0,1,0,3.37h-13.95a14.72,14.72,0,0,1-4.74-.78l-6.28-2.12v-20.86c2.61-.5,5.16-2.18,7.47-4.92a24.723,24.723,0,0,0,4.89-9.49l0.59-2.4h0.36a3.35,3.35,0,0,1,3.33,3.37v1.69a27.115,27.115,0,0,1-1.59,8.54h-3.4a1.685,1.685,0,0,0,0,3.37h16.65a1.685,1.685,0,0,1,0,3.37h-3.33A1.685,1.685,0,0,0,4322.18,1177.08Z" transform="translate(-4280.56 -1150)"/>
</svg>
