<svg xmlns="http://www.w3.org/2000/svg" width="57.12" height="53.53" viewBox="0 0 57.12 53.53">
  <defs>
    <style>
      .cls-1 {
        fill: #41c1eb;
        fill-rule: evenodd;
      }
    </style>
  </defs>
  <path id="icon_good.svg" class="cls-1" d="M3790.53,3156.52a5.715,5.715,0,0,0-4.25-9.53h-11.09a37.019,37.019,0,0,0,1.57-9.66v-1.91a7.639,7.639,0,0,0-7.62-7.63h-1.9a1.922,1.922,0,0,0-1.85,1.45l-1.03,4.15c-1.46,5.82-6.07,12.24-10.84,13.41a5.728,5.728,0,0,0-5.32-3.63h-11.42a1.908,1.908,0,0,0-1.9,1.91v34.32a1.908,1.908,0,0,0,1.9,1.91h11.42a5.736,5.736,0,0,0,5.16-3.26l6.54,2.18a20.728,20.728,0,0,0,6.62,1.08h15.95a5.723,5.723,0,0,0,5.71-5.72,5.659,5.659,0,0,0-.4-2.11,88.108,88.108,0,0,1,4.21-13.15A5.678,5.678,0,0,0,3790.53,3156.52Zm-40.42,19.07a1.908,1.908,0,0,1-1.91,1.9h-9.51v-30.5h9.51a1.908,1.908,0,0,1,1.91,1.9v26.7Zm32.36-17.16h3.81a1.905,1.905,0,0,1,0,3.81h-3.81a1.905,1.905,0,0,0,0,3.81h3.81a1.91,1.91,0,0,1,0,3.82h-3.81a1.905,1.905,0,0,0,0,3.81,1.905,1.905,0,0,1,0,3.81h-15.95a16.952,16.952,0,0,1-5.42-.88l-7.19-2.4v-23.59c2.99-.57,5.91-2.46,8.55-5.56a27.755,27.755,0,0,0,5.59-10.74l0.68-2.71h0.41a3.815,3.815,0,0,1,3.81,3.81v1.91a30.273,30.273,0,0,1-1.82,9.66h-3.89a1.905,1.905,0,0,0,0,3.81h19.04a1.905,1.905,0,0,1,0,3.81h-3.81A1.91,1.91,0,0,0,3782.47,3158.43Z" transform="translate(-3734.88 -3127.78)"/>
</svg>
