<?xml version="1.0" encoding="utf-8"?>
<!-- Generator: Adobe Illustrator 25.2.3, SVG Export Plug-In . SVG Version: 6.00 Build 0)  -->
<svg version="1.1" id="レイヤー_1" xmlns="http://www.w3.org/2000/svg" xmlns:xlink="http://www.w3.org/1999/xlink" x="0px"
	 y="0px" viewBox="0 0 52.7 54.2" style="enable-background:new 0 0 52.7 54.2;" xml:space="preserve">
<style type="text/css">
	.st0{fill-rule:evenodd;clip-rule:evenodd;fill:#41C1EB;}
	.st1{fill:#41C1EB;}
</style>
<path id="icon_detail" class="st0" d="M33.5,36.8h3.3c2.1,0,4.2,0,6.2,0c0.4,0,0.8,0.3,0.9,0.7c0.1,0.4-0.1,0.8-0.6,1
	c-0.2,0-0.3,0.1-0.5,0c-3,0-5.9,0-8.9,0c-0.3,0-0.6,0.2-0.6,0.5c0,0,0,0,0,0c-0.6,1.6-2.1,2.8-3.8,2.8c-1.8,0-3.3-1.1-3.9-2.8
	c0-0.1-0.1-0.3-0.1-0.4h-0.6c-5,0-9.9,0-14.9,0c-0.5,0.1-0.9-0.3-1-0.7c-0.1-0.5,0.3-0.9,0.7-1c0.1,0,0.2,0,0.3,0
	c3.8,0,7.6,0,11.3,0c1.2,0,2.5,0,3.8,0c0.2,0,0.5-0.1,0.5-0.3c0.5-1.7,2.1-2.9,3.9-2.9c1.8,0,3.4,1.2,3.9,2.9
	C33.4,36.6,33.4,36.6,33.5,36.8z M31.8,37.6c0-1.3-1-2.3-2.3-2.3c-1.3,0-2.4,1-2.4,2.3c0,1.3,1,2.4,2.3,2.4c0,0,0.1,0,0.1,0
	C30.7,40,31.8,38.9,31.8,37.6L31.8,37.6z M40.8,15.6c0.7,0,1.4,0,2.1,0c0.5,0,0.9,0.3,0.9,0.8c0,0.5-0.3,0.9-0.8,0.9
	c0,0-0.1,0-0.1,0c-0.7,0-1.4,0-2.1,0c-0.2,0.9-0.8,1.8-1.5,2.4c-1.8,1.4-4.3,1.1-5.7-0.7c-0.3-0.3-0.5-0.7-0.6-1.1
	c-0.1-0.3-0.4-0.6-0.7-0.5c-7.4,0-14.9,0-22.3,0c-0.5,0.1-0.9-0.2-1-0.6c0-0.1,0-0.2,0-0.3c0-0.4,0.3-0.8,0.8-0.8c0.2,0,0.3,0,0.4,0
	c7.4,0,14.8,0,22.2,0c0.3,0.1,0.6-0.2,0.7-0.5c0.6-1.7,2.1-2.8,3.8-2.8c1.7,0,3.3,1.1,3.8,2.8C40.7,15.2,40.8,15.4,40.8,15.6z
	 M36.9,14.1c-1.3,0-2.4,1-2.4,2.3c0,1.3,1,2.4,2.3,2.4s2.4-1,2.4-2.3C39.2,15.2,38.2,14.1,36.9,14.1L36.9,14.1z M12,27.9
	c-0.7,0-1.4,0-2.1,0c-0.5,0.1-0.9-0.3-0.9-0.7c0-0.1,0-0.1,0-0.2c0-0.5,0.4-0.8,0.8-0.8c0,0,0.1,0,0.1,0c0.7,0,1.4,0,2.1,0
	c0.2-0.9,0.8-1.7,1.5-2.4c1.8-1.4,4.3-1.1,5.7,0.7c0.3,0.3,0.5,0.7,0.6,1.1c0.1,0.3,0.4,0.6,0.7,0.5c7.4,0,14.9,0,22.3,0
	c0.5-0.1,0.9,0.2,1,0.6c0,0.1,0,0.2,0,0.3c0,0.4-0.4,0.8-0.8,0.8c-0.2,0-0.3,0-0.4,0c-7.4,0-14.8,0-22.2,0c-0.3-0.1-0.6,0.2-0.7,0.5
	c-0.6,1.6-2.1,2.8-3.8,2.8c-1.7,0-3.3-1.1-3.8-2.8C12.1,28.2,12,28,12,27.9z M15.9,29.3c1.3,0,2.4-1,2.4-2.3c0-1.3-1-2.4-2.3-2.4
	l0,0c-1.3,0-2.4,1-2.4,2.3S14.6,29.3,15.9,29.3L15.9,29.3z"/>
<path class="st1" d="M26.4,53.6C12.2,53.6,0.6,41.7,0.6,27S12.2,0.4,26.4,0.4S52.2,12.4,52.2,27S40.6,53.6,26.4,53.6z M26.4,1.6
	C12.9,1.6,1.8,13,1.8,27c0,14,11,25.4,24.6,25.4C39.9,52.4,51,41,51,27C51,13,39.9,1.6,26.4,1.6z"/>
</svg>
