<?xml version="1.0" encoding="utf-8"?>
<!-- Generator: Adobe Illustrator 25.2.3, SVG Export Plug-In . SVG Version: 6.00 Build 0)  -->
<svg version="1.1" id="_x32_" xmlns="http://www.w3.org/2000/svg" xmlns:xlink="http://www.w3.org/1999/xlink" x="0px" y="0px"
	 viewBox="0 0 512 512" style="enable-background:new 0 0 512 512;" xml:space="preserve">
<style type="text/css">
	.st0{fill:#4B4B4B;}
</style>
<path class="st0" d="M511.6,252.2c-0.4-1.8-0.8-2.7-1.2-3.6c-0.7-1.7-1.4-3-2.2-4.4c-3-5.2-7.8-12.3-14.4-21.2
	c-9.9-13.3-23.5-30.1-38.9-46.7c-15.4-16.6-32.5-32.9-49.9-45.3c-24.6-17.4-48.6-31-73.1-40.2c-24.5-9.2-49.6-14-75.8-14
	c-26.2,0-51.3,4.8-75.8,14c-12,4.5-23.8,10-35.7,16.6l24,24c7.8-3.9,15.5-7.4,23.1-10.2c21.2-8,42.1-11.9,64.5-11.9
	c22.3,0,43.2,4,64.5,11.9c21.2,8,42.7,20,65.8,36.3c21.7,15.3,46.4,41.3,64.9,63.7c9.3,11.2,17.1,21.6,22.5,29.3
	c1.5,2.2,2.8,4,3.9,5.7c-6.4,9.8-20.2,28.3-36.8,47.2c-15.7,17.9-34.2,36.5-51.2,49.1l23.1,23.1c23.2-18.1,45.7-42.4,63.5-63.8
	c9.8-11.9,18.1-22.8,24.1-31.3c3-4.3,5.4-7.9,7.3-11c0.9-1.6,1.7-3,2.5-4.5c0.4-0.8,0.7-1.6,1.1-2.8c0.2-0.6,0.4-1.3,0.6-2.2
	c0.2-0.9,0.4-2,0.4-3.8C512,254.3,511.8,253.1,511.6,252.2z"/>
<path class="st0" d="M338.8,383c-6.2,3-12.3,5.6-18.4,7.9c-21.2,8-42.1,11.9-64.5,11.9c-22.3,0-43.2-4-64.5-11.9
	c-21.2-8-42.7-20-65.8-36.3c-21.7-15.3-46.4-41.2-64.9-63.7c-9.3-11.2-17.1-21.6-22.5-29.3c-1.5-2.2-2.8-4-3.9-5.7
	c6.4-9.8,20.2-28.3,36.8-47.2c14.5-16.5,31.3-33.6,47.2-46l-23-23c-21.8,17.7-42.8,40.5-59.6,60.6c-9.8,11.9-18.1,22.8-24.1,31.3
	c-3,4.3-5.4,7.9-7.3,11c-0.9,1.6-1.7,3-2.5,4.5c-0.4,0.8-0.7,1.6-1.1,2.8c-0.2,0.6-0.4,1.3-0.6,2.2c-0.2,0.9-0.4,2-0.4,3.8
	c0,1.7,0.2,2.9,0.4,3.8c0.4,1.8,0.8,2.7,1.2,3.6c0.7,1.7,1.4,3,2.2,4.4c3,5.2,7.8,12.3,14.4,21.2c9.9,13.3,23.5,30.1,38.9,46.7
	c15.4,16.6,32.5,32.9,49.9,45.3c24.6,17.4,48.6,31,73.1,40.2c24.5,9.2,49.6,14,75.8,14c26.2,0,51.3-4.8,75.8-14
	c10.4-3.9,20.8-8.6,31.1-14.1L338.8,383z"/>
<path class="st0" d="M241.9,204.8c4.5-1.2,9.2-1.9,14.1-1.9c5.8,0,11.3,0.9,16.5,2.6l-7.3,22.5l22.2,22.2l20.8-3.8
	c0.6,3.1,0.9,6.3,0.9,9.6c0,4.9-0.7,9.6-1.9,14.1l46.1,46.1c10.8-17.5,17.1-38.1,17.1-60.1c0-63.1-51.2-114.3-114.3-114.3
	c-22.1,0-42.6,6.3-60.1,17.1L241.9,204.8z"/>
<path class="st0" d="M264.2,308.4c-2.7,0.4-5.4,0.6-8.2,0.6c-29.3,0-53.1-23.8-53.1-53.1c0-2.8,0.2-5.5,0.6-8.2l-47.4-47.4
	c-9.2,16.5-14.4,35.4-14.4,55.6c0,63.1,51.2,114.3,114.3,114.3c20.2,0,39.2-5.2,55.6-14.4L264.2,308.4z"/>
<rect x="240" y="-29.9" transform="matrix(0.7071 -0.7071 0.7071 0.7071 -108.5497 257.0401)" class="st0" width="32.1" height="578.9"/>
</svg>
