<svg xmlns="http://www.w3.org/2000/svg" width="52.06" height="49.47" viewBox="0 0 52.06 49.47">
  <defs>
    <style>
      .cls-1 {
        fill: #fff;
        fill-rule: evenodd;
      }
    </style>
  </defs>
  <path id="icon_star_on.svg" class="cls-1" d="M4433.25,1167.63a1.5,1.5,0,0,0-1.23-1.04l-16.06-2.34-7.18-14.56a1.534,1.534,0,0,0-1.37-.85,1.508,1.508,0,0,0-1.36.85l-7.18,14.56-16.27,2.34a1.515,1.515,0,0,0-1.23,1.04,1.531,1.531,0,0,0,.4,1.57l11.81,11.33-2.74,16a1.516,1.516,0,0,0,2.21,1.6l14.36-7.55,14.37,7.55a1.52,1.52,0,0,0,2.21-1.6l-2.74-16.01,11.62-11.33A1.531,1.531,0,0,0,4433.25,1167.63Z" transform="translate(-4381.28 -1148.84)"/>
</svg>
