<?xml version="1.0" encoding="utf-8"?>
<!-- Generator: Adobe Illustrator 25.3.1, SVG Export Plug-In . SVG Version: 6.00 Build 0)  -->
<svg version="1.1" id="レイヤー_1" xmlns="http://www.w3.org/2000/svg" xmlns:xlink="http://www.w3.org/1999/xlink" x="0px"
	 y="0px" viewBox="0 0 112.3 112.3" style="enable-background:new 0 0 112.3 112.3;" xml:space="preserve">
<style type="text/css">
	.st0{fill:#41C1EB;}
</style>
<g>
	<path class="st0" d="M101.9,42.3h-2.4c-0.8-2.4-1.8-4.8-2.9-7l1.7-1.7c0,0,0,0,0,0c4-4,4-10.6,0-14.6l-5-5c0,0,0,0,0,0
		c-4-4-10.6-4-14.6,0L77,15.6c-2.3-1.2-4.6-2.1-7-2.9v-2.4C70,4.6,65.4,0,59.7,0h-7c-5.7,0-10.3,4.6-10.3,10.3v2.4
		c-2.4,0.8-4.8,1.8-7,2.9L33.5,14c0,0,0,0,0,0c-4-4-10.6-4-14.6,0l-5,5c0,0,0,0,0,0c-4,4-4,10.6,0,14.6l1.7,1.7
		c-1.2,2.3-2.1,4.6-2.9,7h-2.4C4.6,42.3,0,46.9,0,52.6v7.1C0,65.4,4.6,70,10.3,70h2.4c0.8,2.4,1.8,4.8,2.9,7L14,78.7c0,0,0,0,0,0
		c-4,4-4,10.6,0,14.6l5,5c4,4,10.6,4,14.6,0l1.7-1.7c2.3,1.2,4.6,2.1,7,2.9v2.4c0,5.7,4.6,10.3,10.3,10.3h7
		c5.7,0,10.3-4.6,10.3-10.3v-2.4c2.4-0.8,4.8-1.7,7-2.9l1.7,1.7c4,4,10.6,4,14.6,0l5-5c0,0,0,0,0,0c4-4,4-10.6,0-14.6L96.6,77
		c1.2-2.3,2.1-4.6,2.9-7h2.4c5.7,0,10.3-4.6,10.3-10.3v-7.1C112.3,46.9,107.6,42.3,101.9,42.3z M105.7,59.7c0,2.1-1.7,3.8-3.8,3.8
		h-4.9c-1.5,0-2.8,1-3.2,2.5c-0.9,3.5-2.3,6.9-4.2,10.1c-0.8,1.3-0.6,2.9,0.5,4l3.4,3.4c0,0,0,0,0,0c1.5,1.5,1.5,3.8,0,5.3l-5,5
		c0,0,0,0,0,0c-1.5,1.5-3.8,1.5-5.3,0l-3.4-3.4c-1.1-1.1-2.7-1.3-4-0.5c-3.1,1.9-6.5,3.3-10.1,4.2c-1.5,0.4-2.5,1.7-2.5,3.2v4.8
		c0,2.1-1.7,3.8-3.8,3.8h-7c-2.1,0-3.8-1.7-3.8-3.8v-4.8c0-1.5-1-2.8-2.5-3.2c-3.5-0.9-6.9-2.3-10.1-4.2h0c-1.3-0.8-2.9-0.6-4,0.5
		l-3.4,3.4c0,0,0,0,0,0c-1.5,1.5-3.8,1.5-5.3,0l-5-5c0,0,0,0,0,0c-1.5-1.5-1.5-3.8,0-5.3l3.4-3.4c1.1-1.1,1.3-2.7,0.5-4
		c-1.9-3.1-3.3-6.5-4.2-10.1c-0.4-1.5-1.7-2.5-3.2-2.5h-4.9c-2.1,0-3.8-1.7-3.8-3.8v-7.1c0-2.1,1.7-3.8,3.8-3.8h4.9
		c1.5,0,2.8-1,3.2-2.5c0.9-3.5,2.3-6.9,4.2-10.1c0.8-1.3,0.6-2.9-0.5-4l-3.4-3.4c0,0,0,0,0,0c-1.5-1.5-1.5-3.8,0-5.3l5-5
		c0,0,0,0,0,0c1.5-1.5,3.8-1.5,5.3,0l3.4,3.4c1.1,1.1,2.7,1.3,4,0.5c3.1-1.9,6.5-3.3,10.1-4.2c1.5-0.4,2.5-1.7,2.5-3.2v-4.9
		c0-2.1,1.7-3.8,3.8-3.8h7c2.1,0,3.8,1.7,3.8,3.8v4.9c0,1.5,1,2.8,2.5,3.2c3.5,0.9,6.9,2.3,10.1,4.2c1.3,0.8,2.9,0.6,4-0.5l3.4-3.4
		c0,0,0,0,0,0c1.5-1.5,3.8-1.5,5.3,0l5,5c0,0,0,0,0,0c1.5,1.5,1.5,3.8,0,5.3l-3.4,3.4c-1.1,1.1-1.3,2.7-0.5,4
		c1.9,3.1,3.3,6.5,4.2,10.1c0.4,1.5,1.7,2.5,3.2,2.5h4.9c2.1,0,3.8,1.7,3.8,3.8V59.7z"/>
	<path class="st0" d="M56.1,31.7c-13.5,0-24.4,10.9-24.4,24.4s10.9,24.4,24.4,24.4c13.5,0,24.4-10.9,24.4-24.4c0,0,0,0,0,0
		C80.6,42.6,69.6,31.7,56.1,31.7z M72.5,56.1c0,9-7.3,16.4-16.4,16.4c-9,0-16.4-7.3-16.4-16.4s7.3-16.4,16.4-16.4
		S72.5,47.1,72.5,56.1C72.5,56.1,72.5,56.1,72.5,56.1z"/>
</g>
</svg>
