<svg xmlns="http://www.w3.org/2000/svg" width="101.781" height="101.78" viewBox="0 0 101.781 101.78">
  <defs>
    <style>
      .cls-1 {
        fill: #41c1eb;
        fill-rule: evenodd;
      }
    </style>
  </defs>
  <path id="icon_help.svg" class="cls-1" d="M478.768,1134a7.274,7.274,0,0,1-2.377-.4l-20.335-6.99a49.911,49.911,0,0,1-21.985,5.15h-0.079a49.754,49.754,0,1,1,44.623-27.71l6.987,20.34h0A7.258,7.258,0,0,1,478.768,1134Zm-22.944-13.67a3,3,0,0,1,.98.16l21.548,7.4a1.213,1.213,0,0,0,1.543-1.54l-7.4-21.55a3.014,3.014,0,0,1,.186-2.39,43.7,43.7,0,1,0-18.264,18.27A2.927,2.927,0,0,1,455.824,1120.33Zm-22.321-9.97a3.015,3.015,0,1,0-3.018-3.01,3.045,3.045,0,0,0,3.018,3.01h0Zm0-10.43a3.018,3.018,0,0,1-3.018-3.02v-12.3a3.018,3.018,0,0,1,3.018-3.02,8.975,8.975,0,1,0-8.978-8.98,3.018,3.018,0,1,1-6.035,0,15.012,15.012,0,1,1,18.03,14.71v9.59A3.017,3.017,0,0,1,433.5,1099.93Z" transform="translate(-384.219 -1032.22)"/>
</svg>
