<svg xmlns="http://www.w3.org/2000/svg" width="121.938" height="105" viewBox="0 0 121.938 105">
  <defs>
    <style>
      .cls-1 {
        fill: #41c1eb;
        fill-rule: evenodd;
      }
    </style>
  </defs>
  <path id="icon_history.svg" class="cls-1" d="M891.84,855.162l-5.848,5.164a53.63,53.63,0,0,0,6.051,5.806l4.943-6.028A45.083,45.083,0,0,1,891.84,855.162Zm-7.684-12.031L876.99,846.2a51.806,51.806,0,0,0,3.934,7.419l6.577-4.168A44.472,44.472,0,0,1,884.156,843.131ZM925.369,773a52.622,52.622,0,0,0-52.118,45.567L862.654,808a3.905,3.905,0,0,0-5.512,0h0a3.88,3.88,0,0,0,0,5.5l19.493,19.443L896.129,813.5a3.882,3.882,0,0,0,0-5.5h0a3.9,3.9,0,0,0-5.511,0l-9.3,9.266a44.719,44.719,0,1,1,21.56,46.927l-3.919,6.724A52.531,52.531,0,1,0,925.369,773Zm-5.848,17.5v42.774l17.155,12.833,4.678-6.222-14.035-10.5V790.5h-7.8Z" transform="translate(-856.031 -773)"/>
</svg>
