<?xml version="1.0" encoding="utf-8"?>
<!-- Generator: Adobe Illustrator 25.3.1, SVG Export Plug-In . SVG Version: 6.00 Build 0)  -->
<svg version="1.1" id="icon_login.svg" xmlns="http://www.w3.org/2000/svg" xmlns:xlink="http://www.w3.org/1999/xlink" x="0px"
	 y="0px" viewBox="0 0 98.6 91.3" style="enable-background:new 0 0 98.6 91.3;" xml:space="preserve">
<style type="text/css">
	.st0{fill-rule:evenodd;clip-rule:evenodd;fill:#8C939B;}
	.st1{fill:#8C939B;}
</style>
<path class="st0" d="M76.4,0H29c-1,0-1.9,0.8-1.9,1.9l0,0v5.6h3.8V3.8h43.6v52.7H30.9v-3.8h-3.8v5.6c0,1,0.8,1.9,1.9,1.9l0,0h47.4
	c1,0,1.9-0.8,1.9-1.9l0,0V1.9C78.3,0.8,77.4,0,76.4,0L76.4,0L76.4,0L76.4,0z"/>
<polygon class="st0" points="46.3,32 38.2,40 40.9,42.7 53.5,30.1 40.9,17.5 38.2,20.1 46.3,28.2 19.6,28.2 19.6,32 "/>
<g>
	<path class="st1" d="M5.1,69.1h14.8c0.7,0,1.7,0,2.8,0c-0.1,0.9-0.1,2-0.1,2.9v12.9c0,1.1,0.1,3.9,0.1,3.9h-4.5c0,0,0-0.6,0.1-1.4
		H6.4v1.4H2c0,0,0.1-2.5,0.1-4V71.9c0-0.8,0-2.1-0.1-2.9C3.1,69,4.3,69.1,5.1,69.1z M6.4,83.3h11.9V73.2H6.4V83.3z"/>
	<path class="st1" d="M48.6,69.8l-2,0.8l2.7,1.7c-0.3,0.6-0.8,1.4-1,2.2c-0.7,2.2-2.1,5.7-4.6,8.7c-2.6,3.2-5.8,5.6-10.8,7.6
		l-3.8-3.4c5.7-1.7,8.5-4,10.7-6.5c1.7-1.9,3.2-4.9,3.5-5.6h-6.6c-1.9,1.4-4.2,3.6-6.7,5.3l-3.6-2.7c4.7-2.9,6.8-6.1,8.2-8.3
		c0.5-0.7,1.1-2.1,1.4-3.2l4.7,1.5c-0.6,0.8-1.2,1.9-1.6,2.6h4.3c0.8,0,1.7-0.1,2.4-0.3c-0.5-1-1.2-2.3-1.8-3.2l2.5-1
		C47.2,67.2,48.2,68.9,48.6,69.8z M51.9,68.5l-2.5,1.1c-0.5-1.1-1.4-2.6-2.1-3.7l2.5-1C50.5,65.9,51.5,67.6,51.9,68.5z"/>
	<path class="st1" d="M63,72.8c2.7-1.6,5.9-4.5,7.6-6.5l3.5,3.3c-2,1.9-4.6,4-7.1,5.7v10.4c0,1.3,0.1,3.1,0.3,3.8h-5.1
		c0.1-0.7,0.2-2.6,0.2-3.8v-7.8c-2.7,1.4-5.9,2.7-9,3.6l-2-4.1C56.2,76.2,60,74.6,63,72.8z"/>
	<path class="st1" d="M86,82c4.8-2.8,8.3-6.9,10.1-10.6l2.5,4.5c-2.1,3.8-5.9,7.4-10.3,10c-2.7,1.6-6.1,3-9.5,3.5l-2.7-4.2
		C80,84.7,83.4,83.5,86,82z M86.9,73.3l-3.3,3.4c-1.4-1.5-4.7-4.5-6.7-5.8l3-3.3C81.8,68.9,85.3,71.6,86.9,73.3z"/>
</g>
</svg>
