<?xml version="1.0" encoding="utf-8"?>
<!-- Generator: Adobe Illustrator 25.3.1, SVG Export Plug-In . SVG Version: 6.00 Build 0)  -->
<svg version="1.1" id="icon_login.svg" xmlns="http://www.w3.org/2000/svg" xmlns:xlink="http://www.w3.org/1999/xlink" x="0px"
	 y="0px" viewBox="0 0 106 89.4" style="enable-background:new 0 0 106 89.4;" xml:space="preserve">
<style type="text/css">
	.st0{fill-rule:evenodd;clip-rule:evenodd;fill:#8C939B;}
	.st1{fill:#8C939B;}
</style>
<path class="st0" d="M26.9,0L26.9,0L26.9,0c-1,0-1.9,0.8-1.9,1.9v56.4l0,0c0,1.1,0.9,1.9,1.9,1.9h47.4l0,0c1.1,0,1.9-0.9,1.9-1.9
	v-5.6h-3.8v3.8H28.8V3.8h43.6v3.7h3.8V1.9l0,0c0-1.1-0.9-1.9-1.9-1.9H26.9L26.9,0z"/>
<polygon class="st0" points="81.1,32 73,40 75.7,42.7 88.3,30.1 75.7,17.5 73,20.1 81.1,28.2 54.4,28.2 54.4,32 "/>
<g>
	<path class="st1" d="M4,69.2h13.8c0.7,0,1.6,0,2.6,0c0,0.8,0,1.8,0,2.7v12.1c0,1.1,0,3.7,0,3.7h-4.2c0,0,0-0.6,0-1.3h-11v1.3H1.1
		c0,0,0.1-2.4,0.1-3.7v-12c0-0.8,0-1.9,0-2.7C2.2,69.1,3.3,69.2,4,69.2z M5.2,82.4h11.1V73H5.2V82.4z"/>
	<path class="st1" d="M42.6,69.9l-1.9,0.8l2.5,1.6c-0.3,0.5-0.7,1.3-1,2c-0.7,2.1-2,5.3-4.3,8.1c-2.4,2.9-5.4,5.2-10,7.1l-3.6-3.2
		c5.3-1.6,7.9-3.7,10-6.1c1.6-1.7,2.9-4.6,3.3-6.2h-6.2c-1.8,2.2-4,4.3-6.2,5.9l-3.4-2.5c4.4-2.7,6.4-5.7,7.7-7.7
		c0.4-0.7,1-2,1.3-2.9l4.4,1.4c-0.6,0.8-1.2,1.8-1.5,2.4h4c0.7,0,1.6-0.1,2.3-0.3c-0.5-1-1.1-2.2-1.7-3l2.3-0.9
		C41.3,67.4,42.1,69,42.6,69.9z M45.7,68.6l-2.3,1c-0.5-1-1.3-2.5-2-3.4l2.3-0.9C44.3,66.2,45.2,67.8,45.7,68.6z"/>
	<path class="st1" d="M66.6,71.7c-1.3,2.1-3.6,5.2-5.8,6.8L57.7,76c1.8-1.2,3.5-3,4.1-4.1H49.6c-1.1,0-1.9,0.1-3.1,0.2V68
		c1,0.1,2.1,0.3,3.1,0.3h12.8c0.8,0,2.4-0.1,3-0.2l2.4,2.2C67.4,70.6,66.9,71.3,66.6,71.7z M50.7,88.7l-3.5-2.8
		c0.9-0.3,1.8-0.7,2.8-1.5c2.7-2.1,3.4-4.2,3.4-8.2c0-0.9,0-1.6-0.2-2.5h4.4C57.5,79.4,57.7,84.8,50.7,88.7z"/>
	<path class="st1" d="M81.6,69.1v1.7h3.6c1.1,0,1.8-0.1,2.3-0.3l2.6,1.6c-0.2,0.6-0.4,1.7-0.5,2.2c-0.5,2.6-1.1,4.6-2.3,6.8
		c-2,3.9-5.9,6.6-10.3,7.7l-3.1-3.6c1.3-0.2,2.9-0.7,4-1.1c1.8-0.7,3.7-2,5-3.8c1.2-1.7,1.8-3.6,2.1-5.9H73.6v3.2c0,0.6,0,1.5,0.1,2
		h-4.1c0.1-0.7,0.1-1.6,0.1-2.4v-4.3c0-0.6,0-1.6-0.1-2.3c0.9,0.1,1.7,0.1,2.6,0.1h5.2v-1.7c0-0.8,0-1.3-0.2-2.5h4.6
		C81.7,67.8,81.6,68.3,81.6,69.1z"/>
	<path class="st1" d="M91.7,70.4c0-1-0.1-2.3-0.3-3.2H96c-0.1,0.9-0.2,2-0.2,3.2v3.4c3.3,1,8.1,2.7,10.2,3.7l-1.7,4.2
		c-2.5-1.3-5.9-2.6-8.5-3.5v6.4c0,0.7,0.1,2.6,0.3,3.7h-4.7c0.2-1.1,0.3-2.7,0.3-3.7V70.4z"/>
</g>
</svg>
