<svg xmlns="http://www.w3.org/2000/svg" viewBox="0 0 96.88 96.88"><defs><style>.cls-1{fill:#37b0ce;}</style></defs><g id="レイヤー_2" data-name="レイヤー 2"><g id="レイヤー_1-2" data-name="レイヤー 1"><path class="cls-1" d="M48.44,96.88A48.44,48.44,0,1,1,96.88,48.44,48.43,48.43,0,0,1,48.44,96.88Zm0-87.5A39.06,39.06,0,1,0,87.5,48.44,39.05,39.05,0,0,0,48.44,9.38Zm-25,42.18V45.31A2.34,2.34,0,0,1,25.78,43H71.09a2.35,2.35,0,0,1,2.35,2.34v6.25a2.36,2.36,0,0,1-2.35,2.35H25.78A2.35,2.35,0,0,1,23.44,51.56Z"/></g></g></svg>