<svg xmlns="http://www.w3.org/2000/svg" width="58.66" height="60.157" viewBox="0 0 58.66 60.157">
  <defs>
    <style>
      .cls-1 {
        fill: #8c939b;
        fill-rule: evenodd;
      }
    </style>
  </defs>
  <path id="lcon_login" class="cls-1" d="M2505.61,44.521h-47.37a1.879,1.879,0,0,0-1.88,1.88v5.642h3.76V48.283h43.61v52.656h-43.61V97.177h-3.76v5.641a1.879,1.879,0,0,0,1.88,1.881h47.37a1.879,1.879,0,0,0,1.88-1.881V46.4a1.879,1.879,0,0,0-1.88-1.88h0Zm0,0-38.2,40.042,2.66,2.659,12.61-12.613L2470.07,62l-2.66,2.659,8.08,8.073h-26.66v3.761h26.66Zm0,0" transform="translate(-2448.84 -44.531)"/>
</svg>
