<svg xmlns="http://www.w3.org/2000/svg" width="135.344" height="102.531" viewBox="0 0 135.344 102.531">
  <defs>
    <style>
      .cls-1 {
        fill: #41c1eb;
        fill-rule: evenodd;
      }
    </style>
  </defs>
  <path id="icon_good2.svg" class="cls-1" d="M470.681,773.722a32.178,32.178,0,0,0-32.2,32.08,31.794,31.794,0,0,0,3.153,13.839h-7.224A60.754,60.754,0,0,0,437,803.7V800.56a12.62,12.62,0,0,0-12.629-12.58h-3.157a3.153,3.153,0,0,0-3.062,2.382l-1.72,6.854c-2.41,9.6-10.061,20.19-17.979,22.114a9.485,9.485,0,0,0-8.811-5.979H370.7a3.152,3.152,0,0,0-3.157,3.145v56.611a3.153,3.153,0,0,0,3.157,3.145h18.944a9.485,9.485,0,0,0,8.55-5.378l10.848,3.6a34.756,34.756,0,0,0,10.983,1.776h26.449a9.465,9.465,0,0,0,9.472-9.435,9.342,9.342,0,0,0-.666-3.476,9.414,9.414,0,0,0,4.561-15.394,9.381,9.381,0,0,0,.7-11.693A32.1,32.1,0,1,0,470.681,773.722Zm-77.878,93.1a3.155,3.155,0,0,1-3.157,3.145H373.86V819.641h15.786a3.155,3.155,0,0,1,3.157,3.145v44.031Zm53.673-28.306h6.314a3.145,3.145,0,1,1,0,6.29h-6.314a3.146,3.146,0,1,0,0,6.291h6.314a3.145,3.145,0,1,1,0,6.29h-6.314a3.145,3.145,0,1,0,0,6.29,3.145,3.145,0,1,1,0,6.29H420.027a28.441,28.441,0,0,1-8.988-1.453l-11.921-3.958V825.633c4.952-.937,9.8-4.061,14.176-9.175a45.842,45.842,0,0,0,9.267-17.715l1.122-4.473h0.692a6.311,6.311,0,0,1,6.315,6.29V803.7c0,4.223-1.326,12.323-3.023,15.938h-6.449a3.145,3.145,0,1,0,0,6.29h24.408a32.43,32.43,0,0,0,6.809,6.29h-5.959A3.145,3.145,0,1,0,446.476,838.511Zm24.2-6.08A26.629,26.629,0,1,1,497.412,805.8,26.711,26.711,0,0,1,470.681,832.431ZM456.21,820.218a3.061,3.061,0,0,0,4.316,0l19.416-19.342V814.5a3.053,3.053,0,0,0,6.105,0V790.5h-24.1a3.041,3.041,0,1,0,0,6.081h13.68L456.21,815.919A3.031,3.031,0,0,0,456.21,820.218Z" transform="translate(-367.531 -773.719)"/>
</svg>
