<svg xmlns="http://www.w3.org/2000/svg" width="99" height="106" viewBox="0 0 99 106">
  <defs>
    <style>
      .cls-1 {
        fill: #41c1eb;
        fill-rule: evenodd;
      }
    </style>
  </defs>
  <path id="icon_foot.svg" class="cls-1" d="M640.984,568.1c1.515-.418,14.911-4.107,18.668-5.023a3.227,3.227,0,0,0,2.459-3.233c-0.087-2.466-.115-3.563-0.112-3.765a75.575,75.575,0,0,1,1.6-12.719c1.407-7.525,2.863-15.306-.073-23.088a18.315,18.315,0,0,0-7.34-9.3,13.456,13.456,0,0,0-12.038-1.025,22.924,22.924,0,0,0-11.736,9.958,32.727,32.727,0,0,0-4.317,14.488,34.884,34.884,0,0,0,.445,8.638,2.091,2.091,0,0,0,4.118-.732,30.713,30.713,0,0,1-.391-7.622c0.7-10.206,5.687-17.992,13.339-20.827,6.686-2.477,11.851,2.175,14,7.885,2.557,6.778,1.192,14-.128,20.988-0.368,1.948-.749,3.963-1.032,5.918a56.674,56.674,0,0,0-.634,7.38c0,0.311.026,1.387,0.088,3.2-3.628.918-12.07,3.225-17.211,4.638-1.041-2.584-2.056-4.948-2.958-7.046l-0.019-.045c-1.269-2.951-2.364-5.5-3.263-7.994a2.09,2.09,0,0,0-3.938,1.4c0.94,2.609,2.059,5.213,3.355,8.227l0.045,0.1c1.025,2.387,2.085,4.856,3.206,7.675a3.21,3.21,0,0,0,3,2.033A3.276,3.276,0,0,0,640.984,568.1Zm23.417,1.487-0.011-.067a3.22,3.22,0,0,0-1.421-2.119,3.257,3.257,0,0,0-2.524-.426l-18.294,4.457a3.214,3.214,0,0,0-2.292,4.156l3.423,11.257c0.011,0.036.023,0.07,0.038,0.111a11.716,11.716,0,0,0,11.069,7.706,12.086,12.086,0,0,0,3.089-.4,11.789,11.789,0,0,0,8.606-13.478Zm-8,20.646a7.641,7.641,0,0,1-9.136-4.667l-3.141-10.327,16.3-3.971,1.523,10.13c0,0.034.01,0.066,0.015,0.09A7.666,7.666,0,0,1,656.4,590.235Zm40.2-59.016h0a13.455,13.455,0,0,0-12.081.153,18.325,18.325,0,0,0-8,8.744c-3.5,7.552-2.61,15.416-1.754,23.022a74.47,74.47,0,0,1,.671,12.8c-0.015.253-.156,1.619-0.386,3.747a3.223,3.223,0,0,0,2.217,3.4c3.348,1.077,14.818,5.137,18.253,6.355a3.232,3.232,0,0,0,3.993-1.631c1.338-2.764,2.588-5.174,3.809-7.525,4.335-8.355,7.467-14.392,7.507-23.528a32.986,32.986,0,0,0-3.344-14.752A22.919,22.919,0,0,0,696.6,531.219Zm3.009,47.156c-1.054,2.03-2.24,4.316-3.486,6.86-3.543-1.255-12.958-4.583-16.829-5.868,0.142-1.321.3-2.8,0.32-3.182a79.214,79.214,0,0,0-.688-13.51c-0.83-7.363-1.613-14.318,1.394-20.816,2.563-5.538,8.054-9.806,14.541-6.854a18.806,18.806,0,0,1,8.89,8.873,28.762,28.762,0,0,1,2.9,12.862c-0.036,8.134-2.823,13.5-7.041,21.635h0Zm-5.491,14.308-8-2.572a2.1,2.1,0,0,0-2.632,1.341,2.058,2.058,0,0,0,.128,1.589,2.079,2.079,0,0,0,1.219,1.033l7.038,2.263-3.884,10.074a7.66,7.66,0,0,1-14.367-5.116c0-.018.01-0.035,0.02-0.079L675.9,591.2l2.075,0.667a2.1,2.1,0,0,0,2.633-1.341,2.081,2.081,0,0,0-1.347-2.622l-3.069-.987a3.234,3.234,0,0,0-4.12,2.25c-0.008.031-.015,0.061-0.016,0.069l-2.49,11.026a11.786,11.786,0,0,0,7.6,14.079,11.977,11.977,0,0,0,3.9.657,11.851,11.851,0,0,0,10.744-6.916c0.019-.04.037-0.082,0.051-0.118l4.222-10.953A3.214,3.214,0,0,0,694.113,592.683Zm1.995-67.347a3.181,3.181,0,0,0,2.353,2.881,3.329,3.329,0,0,0,.884.121,3.177,3.177,0,0,0,2.626-1.371l6.268-8.892a3.209,3.209,0,0,0-1.822-4.955l-6.99-1.831a3.253,3.253,0,0,0-2.876.631,3.218,3.218,0,0,0-1.166,2.694Zm3.539-9.682,4.38,1.147-3.927,5.572ZM726.7,526.449l-4.39-9.463a3.237,3.237,0,0,0-5.31-.825l-11.5,12.485a3.216,3.216,0,0,0,2.358,5.39,3.3,3.3,0,0,0,.627-0.06l15.893-3.022A3.214,3.214,0,0,0,726.7,526.449Zm-4.31.643-11.865,2.256,8.588-9.32Z" transform="translate(-628 -509)"/>
</svg>
