<svg xmlns="http://www.w3.org/2000/svg" width="34.91" height="29.407" viewBox="0 0 34.91 29.407">
  <defs>
    <style>
      .cls-1 {
        fill: #41c1eb;
        fill-rule: evenodd;
      }
    </style>
  </defs>
  <path id="icon_detail" class="cls-1" d="M1542.07,785.776h3.27c2.08,0,4.15,0,6.23,0a0.808,0.808,0,0,1,.89.716,0.826,0.826,0,0,1-.55.965,1.47,1.47,0,0,1-.5.041c-2.96,0-5.91.009-8.87-.007a0.548,0.548,0,0,0-.63.457,4.087,4.087,0,0,1-3.83,2.784,4.137,4.137,0,0,1-3.88-2.814c-0.04-.127-0.09-0.253-0.14-0.418h-0.6q-7.455,0-14.9,0a0.872,0.872,0,1,1,.01-1.724q5.685,0,11.35,0c1.25,0,2.5-.006,3.76,0a0.439,0.439,0,0,0,.51-0.333,4.078,4.078,0,0,1,3.9-2.9,4.144,4.144,0,0,1,3.89,2.932C1542.01,785.557,1542.03,785.638,1542.07,785.776Zm-1.68.866a2.316,2.316,0,0,0-2.29-2.33,2.328,2.328,0,1,0-.01,4.655A2.319,2.319,0,0,0,1540.39,786.642Zm9.06-22.088c0.74,0,1.41,0,2.09,0a0.864,0.864,0,1,1,0,1.723c-0.69.007-1.38,0-2.09,0a4.452,4.452,0,0,1-1.51,2.355,4.061,4.061,0,0,1-6.32-1.839,0.638,0.638,0,0,0-.73-0.526q-11.145.021-22.3,0.01a0.846,0.846,0,0,1-1.02-.937,0.8,0.8,0,0,1,.77-0.786c0.15-.012.3,0,0.45,0q11.085,0,22.15.01a0.583,0.583,0,0,0,.67-0.475,4.071,4.071,0,0,1,3.85-2.766,4.132,4.132,0,0,1,3.84,2.784C1549.35,764.248,1549.4,764.39,1549.45,764.554Zm-3.94-1.463a2.328,2.328,0,0,0-.13,4.655A2.328,2.328,0,1,0,1545.51,763.091Zm-24.93,13.787c-0.74,0-1.41,0-2.09,0a0.834,0.834,0,0,1-.93-0.887,0.825,0.825,0,0,1,.93-0.837c0.69-.006,1.39,0,2.09,0a4.574,4.574,0,0,1,1.51-2.355,4.059,4.059,0,0,1,6.32,1.839,0.638,0.638,0,0,0,.73.526q11.145-.021,22.3-0.01a0.853,0.853,0,0,1,1.03.937,0.812,0.812,0,0,1-.78.786c-0.15.012-.3,0-0.45,0q-11.07,0-22.15-.01a0.583,0.583,0,0,0-.67.475,4.066,4.066,0,0,1-3.84,2.765,4.133,4.133,0,0,1-3.85-2.783C1520.68,777.183,1520.64,777.042,1520.58,776.878Zm3.95,1.463a2.328,2.328,0,0,0,.12-4.655A2.328,2.328,0,1,0,1524.53,778.341Z" transform="translate(-1517.56 -761.312)"/>
</svg>
