<svg xmlns="http://www.w3.org/2000/svg" width="59.53" height="55.97" viewBox="0 0 59.53 55.97">
  <defs>
    <style>
      .cls-1 {
        fill: #41c1eb;
        fill-rule: evenodd;
      }
    </style>
  </defs>
  <path id="icon_star.svg" class="cls-1" d="M3998.49,3148.73a1.751,1.751,0,0,0-1.41-1.18l-18.36-2.64-8.22-16.46a1.739,1.739,0,0,0-3.12,0l-8.21,16.46-18.6,2.64a1.754,1.754,0,0,0-1.41,1.18,1.714,1.714,0,0,0,.45,1.78l13.51,12.82-3.13,18.09a1.683,1.683,0,0,0,.69,1.68,1.754,1.754,0,0,0,1.83.14l16.43-8.55,16.43,8.55a1.754,1.754,0,0,0,1.83-.14,1.709,1.709,0,0,0,.7-1.68l-3.14-18.1,13.29-12.82A1.739,1.739,0,0,0,3998.49,3148.73Zm-16.82,12.75a1.707,1.707,0,0,0-.5,1.53l2.69,15.54-14.11-7.34a1.822,1.822,0,0,0-1.62,0l-14.11,7.34,2.69-15.54a1.706,1.706,0,0,0-.51-1.54l-11.59-11,15.96-2.27a1.763,1.763,0,0,0,1.32-.95l7.05-14.14,7.06,14.14a1.729,1.729,0,0,0,1.31.95l15.78,2.27Z" transform="translate(-3939.06 -3127.47)"/>
</svg>
