<?xml version="1.0" encoding="utf-8"?>
<!-- Generator: Adobe Illustrator 25.3.1, SVG Export Plug-In . SVG Version: 6.00 Build 0)  -->
<svg version="1.1" id="レイヤー_1" xmlns="http://www.w3.org/2000/svg" xmlns:xlink="http://www.w3.org/1999/xlink" x="0px"
	 y="0px" viewBox="0 0 59.5 56" style="enable-background:new 0 0 59.5 56;" xml:space="preserve">
<style type="text/css">
	.st0{fill-rule:evenodd;clip-rule:evenodd;fill:#8C939B;}
</style>
<path id="icon_star.svg" class="st0" d="M59.4,21.3c-0.2-0.6-0.8-1.1-1.4-1.2l-18.4-2.6L31.4,1C31,0.1,30-0.2,29.1,0.2
	c-0.3,0.2-0.6,0.4-0.8,0.8l-8.2,16.5L1.5,20.1c-0.7,0.1-1.2,0.6-1.4,1.2c-0.2,0.6,0,1.3,0.4,1.8l13.5,12.8L10.9,54
	c-0.1,0.6,0.2,1.3,0.7,1.7c0.5,0.4,1.2,0.4,1.8,0.1l16.4-8.6l16.4,8.6c0.6,0.3,1.3,0.2,1.8-0.1c0.5-0.4,0.8-1,0.7-1.7l-3.1-18.1
	L59,23C59.5,22.6,59.6,21.9,59.4,21.3z M42.6,34c-0.4,0.4-0.6,1-0.5,1.5l2.7,15.5l-14.1-7.3c-0.5-0.3-1.1-0.3-1.6,0L15,51.1
	l2.7-15.5c0.1-0.6-0.1-1.1-0.5-1.5L5.5,23l16-2.3c0.6-0.1,1.1-0.4,1.3-0.9l7.1-14.1l7.1,14.1c0.3,0.5,0.7,0.9,1.3,0.9L54,23L42.6,34
	z"/>
</svg>
