<svg xmlns="http://www.w3.org/2000/svg" width="135.343" height="102.531" viewBox="0 0 135.343 102.531">
  <defs>
    <style>
      .cls-1 {
        fill: #41c1eb;
        fill-rule: evenodd;
      }
    </style>
  </defs>
  <path id="icon_good3.svg" class="cls-1" d="M219.6,773.722a32.179,32.179,0,0,0-32.2,32.08,31.8,31.8,0,0,0,3.154,13.839h-7.224a60.8,60.8,0,0,0,2.6-15.938V800.56a12.62,12.62,0,0,0-12.629-12.58h-3.157a3.155,3.155,0,0,0-3.063,2.382l-1.719,6.854c-2.41,9.6-10.061,20.19-17.979,22.114a9.485,9.485,0,0,0-8.811-5.979H119.62a3.151,3.151,0,0,0-3.157,3.145v56.611a3.152,3.152,0,0,0,3.157,3.145h18.944a9.482,9.482,0,0,0,8.549-5.378l10.849,3.6a34.75,34.75,0,0,0,10.982,1.776h26.45a9.464,9.464,0,0,0,9.471-9.435,9.342,9.342,0,0,0-.665-3.476,9.414,9.414,0,0,0,4.561-15.394,9.381,9.381,0,0,0,.705-11.693A32.1,32.1,0,1,0,219.6,773.722Zm-77.878,93.1a3.155,3.155,0,0,1-3.157,3.145H122.778V819.641h15.786a3.155,3.155,0,0,1,3.157,3.145v44.031Zm53.673-28.306h6.314a3.145,3.145,0,1,1,0,6.29h-6.314a3.146,3.146,0,1,0,0,6.291h6.314a3.145,3.145,0,1,1,0,6.29h-6.314a3.145,3.145,0,1,0,0,6.29,3.145,3.145,0,1,1,0,6.29h-26.45a28.44,28.44,0,0,1-8.987-1.453l-11.922-3.958V825.633c4.953-.937,9.8-4.061,14.176-9.175a45.845,45.845,0,0,0,9.268-17.715l1.122-4.473h0.692a6.311,6.311,0,0,1,6.315,6.29V803.7c0,4.223-1.326,12.323-3.023,15.938h-6.449a3.145,3.145,0,1,0,0,6.29h24.408a32.405,32.405,0,0,0,6.809,6.29h-5.959A3.145,3.145,0,1,0,195.394,838.511Zm24.2-6.08A26.629,26.629,0,1,1,246.33,805.8,26.71,26.71,0,0,1,219.6,832.431Zm14.471-41.044a3.061,3.061,0,0,0-4.316,0l-19.416,19.341V797.1a3.052,3.052,0,0,0-6.1,0v24.007h24.1a3.04,3.04,0,1,0,0-6.08h-13.68l19.416-19.342A3.031,3.031,0,0,0,234.07,791.387Z" transform="translate(-116.469 -773.719)"/>
</svg>
