<svg xmlns="http://www.w3.org/2000/svg" viewBox="0 0 100 100"><defs><style>.cls-1{fill:#fff;}</style></defs><g id="レイヤー_2" data-name="レイヤー 2"><g id="レイヤー_1-2" data-name="レイヤー 1"><path class="cls-1" d="M87.5,59.38V90.62A9.38,9.38,0,0,1,78.12,100H9.38A9.38,9.38,0,0,1,0,90.62V21.88A9.38,9.38,0,0,1,9.38,12.5H40.62a3.13,3.13,0,0,1,3.13,3.12v3.13a3.13,3.13,0,0,1-3.13,3.13H10.55a1.17,1.17,0,0,0-1.17,1.17v66.4a1.17,1.17,0,0,0,1.17,1.17H77a1.17,1.17,0,0,0,1.17-1.17V59.38a3.13,3.13,0,0,1,3.13-3.13h3.13A3.13,3.13,0,0,1,87.5,59.38Zm12.5-57V28.91a2.34,2.34,0,0,1-2.34,2.34A2.32,2.32,0,0,1,96,30.57l-9.42-9.42L33.43,74.32a2.34,2.34,0,0,1-1.66.69,2.31,2.31,0,0,1-1.66-.69L25.69,69.9a2.34,2.34,0,0,1,0-3.32L78.85,13.42,69.44,4a2.31,2.31,0,0,1-.69-1.66A2.34,2.34,0,0,1,71.09,0H97.66A2.34,2.34,0,0,1,100,2.34Z"/></g></g></svg>