<svg xmlns="http://www.w3.org/2000/svg" width="55" height="55" viewBox="0 0 55 55">
  <defs>
    <style>
      .cls-1 {
        fill: #41c1eb;
        fill-rule: evenodd;
      }
    </style>
  </defs>
  <path id="icon_chat.svg" class="cls-1" d="M4195.27,3160.81a1.543,1.543,0,0,0-2.86,1.16l3.2,7.91-9.18-4.05a1.547,1.547,0,0,0-1.23,0,21.994,21.994,0,0,1-8.63,1.74c-12.18,0-20.35-9.56-20.35-18.49,0-10.2,9.13-18.5,20.35-18.5s20.35,8.3,20.35,18.5a18.393,18.393,0,0,1-.2,2.61,1.531,1.531,0,0,0,1.29,1.75,1.521,1.521,0,0,0,1.75-1.29,20.318,20.318,0,0,0-6.67-18.38,24.9,24.9,0,0,0-33.04,0,20.878,20.878,0,0,0-6.83,13.47l-0.03.32-0.26.17a17.2,17.2,0,0,0-7.93,14.26,16.508,16.508,0,0,0,3.24,9.81l0.22,0.29-3.35,8.29a1.532,1.532,0,0,0,1.43,2.12,1.5,1.5,0,0,0,.62-0.13l9.51-4.19,0.25,0.09a20.331,20.331,0,0,0,7.11,1.27c0.03,0,.07-0.01.1-0.01h0.06a20.2,20.2,0,0,0,10.02-2.72,18.315,18.315,0,0,0,6.42-6.25l0.16-.25,0.29-.06a25.052,25.052,0,0,0,4.45-1.23l0.26-.1,12.05,5.31a1.468,1.468,0,0,0,.62.13,1.53,1.53,0,0,0,1.07-.43,1.56,1.56,0,0,0,.36-1.69Zm-19.49,10.94a16.812,16.812,0,0,1-11.75,4.7h-0.01c-0.02,0-.04.01-0.06,0.01h-0.02a17.431,17.431,0,0,1-6.69-1.37,1.483,1.483,0,0,0-1.22.01l-6.64,2.92,2.27-5.62a1.526,1.526,0,0,0-.26-1.57,13.515,13.515,0,0,1-3.32-8.84,13.723,13.723,0,0,1,4.26-9.85l0.89-.86,0.22,1.22a21.649,21.649,0,0,0,6.32,11.53,24.055,24.055,0,0,0,15.58,6.59l1.51,0.07Zm-7.43-23.83a2.2,2.2,0,0,1,2.2,2.2h0a2.2,2.2,0,1,1-4.4,0h0A2.206,2.206,0,0,1,4168.35,3147.92Zm6.6,2.2h0a2.205,2.205,0,0,0,4.41,0h0A2.205,2.205,0,0,0,4174.95,3150.12Zm8.81,0h0a2.2,2.2,0,0,0,4.4,0h0A2.2,2.2,0,0,0,4183.76,3150.12Z" transform="translate(-4145 -3127.5)"/>
</svg>
