<?xml version="1.0" encoding="utf-8"?>
<!-- Generator: Adobe Illustrator 25.2.3, SVG Export Plug-In . SVG Version: 6.00 Build 0)  -->
<svg version="1.1" id="レイヤー_1" xmlns="http://www.w3.org/2000/svg" xmlns:xlink="http://www.w3.org/1999/xlink" x="0px"
	 y="0px" viewBox="0 0 50.5 50.5" style="enable-background:new 0 0 50.5 50.5;" xml:space="preserve">
<style type="text/css">
	.st0{fill-rule:evenodd;clip-rule:evenodd;fill:#FFFFFF;}
</style>
<path id="icon_search.svg" class="st0" d="M49.9,46.9L35.5,32.5c7-8.6,5.6-21.2-3-28.2c-8.6-7-21.2-5.6-28.2,3
	c-7,8.6-5.6,21.2,3,28.2c7.3,5.9,17.9,5.9,25.2,0l14.4,14.4c0.8,0.8,2.1,0.8,3,0c0,0,0,0,0,0C50.7,49.1,50.7,47.7,49.9,46.9
	C49.9,46.9,49.9,46.9,49.9,46.9z M20,35.8c-8.7,0-15.8-7.1-15.8-15.8S11.3,4.2,20,4.2S35.8,11.3,35.8,20
	C35.8,28.7,28.7,35.8,20,35.8z"/>
</svg>
