<svg xmlns="http://www.w3.org/2000/svg" width="87.312" height="107.59" viewBox="0 0 87.312 107.59">
  <defs>
    <style>
      .cls-1 {
        fill: #41c1eb;
        fill-rule: evenodd;
      }
    </style>
  </defs>
  <path id="icon_bell.svg" class="cls-1" d="M224.134,1105.85c-2.685-4.05-6.362-9.59-6.362-25.46v-7.25a34.48,34.48,0,0,0-23.884-32.88v-0.92a10.226,10.226,0,1,0-20.451,0v0.92a34.479,34.479,0,0,0-23.885,32.88v7.25c0,15.87-3.677,21.41-6.369,25.47-1.637,2.48-3.185,4.82-3.185,8.33,0,3.86,3.444,6.9,10.234,9.04a89.035,89.035,0,0,0,19.335,3.19,14.849,14.849,0,0,0,28.191,0,89.014,89.014,0,0,0,19.334-3.19c6.791-2.14,10.234-5.18,10.234-9.04C227.326,1110.68,225.779,1108.34,224.134,1105.85Zm-5.086,3.45c1.5,2.25,2.158,3.32,2.158,4.89,0,0.74-2.167,2.57-10.365,4.24a143.182,143.182,0,0,1-27.179,2.32,143.178,143.178,0,0,1-27.178-2.32c-8.2-1.67-10.365-3.5-10.365-4.24,0-1.57.661-2.64,2.163-4.9,2.944-4.45,7.391-11.17,7.391-28.9v-7.25a27.991,27.991,0,1,1,55.979,0v7.25C211.652,1098.12,216.1,1104.84,219.048,1109.3Zm-35.386-70.64a32.21,32.21,0,0,0-4.087.28,4.1,4.1,0,0,1,8.174,0A32.21,32.21,0,0,0,183.662,1038.66Zm0,88.28c1.615,0,4.079-.02,7.079-0.13a8.759,8.759,0,0,1-14.157,0C179.583,1126.92,182.048,1126.94,183.662,1126.94Z" transform="translate(-140 -1029)"/>
</svg>
