<svg xmlns="http://www.w3.org/2000/svg" viewBox="0 0 86.49 80.71"><defs><style>.cls-1{fill:#2f2e32;}</style></defs><g id="レイヤー_2" data-name="レイヤー 2"><g id="レイヤー_1-2" data-name="レイヤー 1"><path class="cls-1" d="M.69,41.59,41.59.69a2.34,2.34,0,0,1,3.32,0l40.9,40.9a2.36,2.36,0,0,1,0,3.32l-3.87,3.86a2.34,2.34,0,0,1-3.32,0L43.25,13.48,7.88,48.77a2.34,2.34,0,0,1-3.32,0L.69,44.91A2.34,2.34,0,0,1,.69,41.59Zm40.9-9.65a2.34,2.34,0,0,1,3.32,0l40.9,40.9a2.36,2.36,0,0,1,0,3.32L81.94,80a2.34,2.34,0,0,1-3.32,0L43.25,44.73,7.88,80a2.34,2.34,0,0,1-3.32,0L.69,76.16a2.34,2.34,0,0,1,0-3.32Z"/></g></g></svg>