<svg xmlns="http://www.w3.org/2000/svg" width="56" height="69" viewBox="0 0 56 69">
  <defs>
    <style>
      .cls-1 {
        fill: #8c939b;
        fill-rule: evenodd;
      }
    </style>
  </defs>
  <path id="icon_bell2.svg" class="cls-1" d="M1036.95,81.283c-1.72-2.6-4.08-6.154-4.08-16.332V60.306a22.127,22.127,0,0,0-15.31-21.086V38.629a6.56,6.56,0,1,0-13.12,0V39.22a22.119,22.119,0,0,0-15.315,21.086v4.645c0,10.177-2.357,13.734-4.084,16.339-1.05,1.587-2.042,3.085-2.042,5.339,0,2.475,2.208,4.425,6.562,5.794a57.1,57.1,0,0,0,12.4,2.048,9.523,9.523,0,0,0,18.08,0,57.116,57.116,0,0,0,12.4-2.048c4.35-1.369,6.56-3.319,6.56-5.794C1039,84.375,1038.01,82.877,1036.95,81.283Zm-3.26,2.209c0.96,1.446,1.38,2.128,1.38,3.137,0,0.474-1.39,1.651-6.64,2.718A91.738,91.738,0,0,1,1011,90.839a91.76,91.76,0,0,1-17.43-1.492c-5.258-1.066-6.646-2.244-6.646-2.718,0-1.009.424-1.691,1.387-3.143,1.887-2.851,4.739-7.159,4.739-18.535V60.306a17.951,17.951,0,1,1,35.9,0v4.645C1028.95,76.327,1031.8,80.635,1033.69,83.492ZM1011,38.193a20.123,20.123,0,0,0-2.62.182,2.629,2.629,0,0,1,5.24,0A20.36,20.36,0,0,0,1011,38.193Zm0,56.613c1.03,0,2.61-.016,4.54-0.086a5.614,5.614,0,0,1-9.08,0C1008.38,94.79,1009.96,94.806,1011,94.806Z" transform="translate(-983 -32)"/>
</svg>
