<svg xmlns="http://www.w3.org/2000/svg" width="30.66" height="43.438" viewBox="0 0 30.66 43.438">
  <defs>
    <style>
      .cls-1 {
        fill: #717171;
        fill-rule: evenodd;
      }
    </style>
  </defs>
  <path id="icon_map" class="cls-1" d="M4863.09,948a15.317,15.317,0,0,0-15.33,15.266,15.161,15.161,0,0,0,2.29,8.027l12.17,19.528a1.268,1.268,0,0,0,1.08.6h0.01a1.279,1.279,0,0,0,1.09-.618l11.85-19.717a15.147,15.147,0,0,0,2.16-7.821A15.309,15.309,0,0,0,4863.09,948Zm10.97,21.781-10.78,17.926-11.06-17.754A12.782,12.782,0,1,1,4874.06,969.781Zm-10.97-14.148a7.633,7.633,0,1,0,7.66,7.633A7.651,7.651,0,0,0,4863.09,955.633Zm0,12.738a5.106,5.106,0,1,1,5.12-5.105A5.124,5.124,0,0,1,4863.09,968.371Z" transform="translate(-4847.75 -948)"/>
</svg>
