<?xml version="1.0" encoding="utf-8"?>
<!-- Generator: Adobe Illustrator 25.3.1, SVG Export Plug-In . SVG Version: 6.00 Build 0)  -->
<svg version="1.1" id="_x32_" xmlns="http://www.w3.org/2000/svg" xmlns:xlink="http://www.w3.org/1999/xlink" x="0px" y="0px"
	 viewBox="0 0 512 512" style="enable-background:new 0 0 512 512;" xml:space="preserve">
<style type="text/css">
	.st0{fill:#FFFFFF;}
</style>
<path class="st0" d="M359.2,224h-60c-6.2,0-11.3-5-11.3-11.3v-60c0-6.2-5-11.3-11.3-11.3h-41.5c-6.2,0-11.3,5-11.3,11.3v60
	c0,6.2-5,11.3-11.3,11.3h-60c-6.2,0-11.3,5-11.3,11.3v41.5c0,6.2,5,11.3,11.3,11.3h60c6.2,0,11.3,5,11.3,11.3v60
	c0,6.2,5,11.3,11.3,11.3h41.5c6.2,0,11.3-5,11.3-11.3v-60c0-6.2,5-11.3,11.3-11.3h60c6.2,0,11.3-5,11.3-11.3v-41.5
	C370.5,229,365.5,224,359.2,224z"/>
</svg>
