<?xml version="1.0" encoding="utf-8"?>
<!-- Generator: Adobe Illustrator 25.3.1, SVG Export Plug-In . SVG Version: 6.00 Build 0)  -->
<svg version="1.1" id="レイヤー_1" xmlns="http://www.w3.org/2000/svg" xmlns:xlink="http://www.w3.org/1999/xlink" x="0px"
	 y="0px" viewBox="0 0 57.1 53.5" style="enable-background:new 0 0 57.1 53.5;" xml:space="preserve">
<style type="text/css">
	.st0{fill-rule:evenodd;clip-rule:evenodd;fill:#8C939B;}
</style>
<path id="icon_good.svg" class="st0" d="M55.7,28.7c2.1-2.4,1.9-6-0.4-8.1c-1-0.9-2.4-1.5-3.8-1.5H40.3c0.9-3.1,1.5-6.4,1.6-9.7V7.6
	c0-4.2-3.4-7.6-7.6-7.6h-1.9c-0.9,0-1.6,0.6-1.9,1.4l-1,4.1C28,11.4,23.4,17.9,18.6,19c-0.9-2.2-3-3.6-5.3-3.6H1.9
	c-1.1,0-1.9,0.9-1.9,1.9v34.3c0,1.1,0.8,1.9,1.9,1.9h11.4c2.2,0,4.2-1.3,5.2-3.3l6.5,2.2c2.1,0.7,4.4,1.1,6.6,1.1h15.9
	c3.2,0,5.7-2.6,5.7-5.7c0-0.7-0.1-1.4-0.4-2.1c1.1-4.5,2.5-8.9,4.2-13.1C57.1,31.1,56.6,29.8,55.7,28.7z M15.2,47.8
	c0,1.1-0.9,1.9-1.9,1.9H3.8V19.2h9.5c1.1,0,1.9,0.8,1.9,1.9V47.8L15.2,47.8z M47.6,30.7h3.8c1.1,0,1.9,0.9,1.9,1.9s-0.9,1.9-1.9,1.9
	l0,0h-3.8c-1.1,0-1.9,0.9-1.9,1.9s0.9,1.9,1.9,1.9h3.8c1.1,0,1.9,0.9,1.9,1.9c0,1.1-0.9,1.9-1.9,1.9l0,0h-3.8
	c-1.1,0-1.9,0.9-1.9,1.9s0.9,1.9,1.9,1.9s1.9,0.9,1.9,1.9s-0.9,1.9-1.9,1.9l0,0H31.6c-1.8,0-3.7-0.3-5.4-0.9L19,46.4V22.8
	c3-0.6,5.9-2.5,8.6-5.6c2.6-3.1,4.5-6.8,5.6-10.7l0.7-2.7h0.4c2.1,0,3.8,1.7,3.8,3.8v1.9c-0.1,3.3-0.7,6.6-1.8,9.7h-3.9
	c-1.1,0-1.9,0.9-1.9,1.9s0.9,1.9,1.9,1.9h19c1.1,0,1.9,0.9,1.9,1.9s-0.9,1.9-1.9,1.9l0,0h-3.8c-1.1,0-1.9,0.8-1.9,1.9
	C45.6,29.8,46.5,30.7,47.6,30.7C47.6,30.7,47.6,30.7,47.6,30.7L47.6,30.7z"/>
</svg>
